<svg xmlns="http://www.w3.org/2000/svg" viewBox="0 0 64 64" shape-rendering="crispEdges" role="img" aria-labelledby="title">
<title id="title">CALVI LA VIE — monogramme CLV en pixel art</title>
<rect width="64" height="64" fill="#0b1126"/>
<rect x="4" y="4" width="56" height="56" fill="#183449" stroke="#69f5db" stroke-width="2"/>
<path d="M6 49h8v-6h8v-5h4v5h5v6h7v-8h5v-5h4v5h4v8h7v9H6z" fill="#284e64"/>
<path d="M6 55h52v3H6z" fill="#55d9df"/>
<path d="M45 10h8v3h3v8h-3v3h-8v-3h-3v-8h3z" fill="#efbc61"/>
<path d="M45 10h5v3h-5v8h5v3h-5v-3h-3v-8h3z" fill="#183449"/>
<path d="M12 14h3v3h3v-3h3v3h-3v3h-3v-3h-3z" fill="#69f5db"/>
<defs><path id="clv" d="M3,0h3v3h-3z M6,0h3v3h-3z M9,0h3v3h-3z M12,0h3v3h-3z M0,3h3v3h-3z M3,3h3v3h-3z M0,6h3v3h-3z M3,6h3v3h-3z M0,9h3v3h-3z M3,9h3v3h-3z M0,12h3v3h-3z M3,12h3v3h-3z M0,15h3v3h-3z M3,15h3v3h-3z M3,18h3v3h-3z M6,18h3v3h-3z M9,18h3v3h-3z M12,18h3v3h-3z M18,0h3v3h-3z M21,0h3v3h-3z M18,3h3v3h-3z M21,3h3v3h-3z M18,6h3v3h-3z M21,6h3v3h-3z M18,9h3v3h-3z M21,9h3v3h-3z M18,12h3v3h-3z M21,12h3v3h-3z M18,15h3v3h-3z M21,15h3v3h-3z M18,18h3v3h-3z M21,18h3v3h-3z M24,18h3v3h-3z M27,18h3v3h-3z M30,18h3v3h-3z M36,0h3v3h-3z M39,0h3v3h-3z M45,0h3v3h-3z M48,0h3v3h-3z M36,3h3v3h-3z M39,3h3v3h-3z M45,3h3v3h-3z M48,3h3v3h-3z M36,6h3v3h-3z M39,6h3v3h-3z M45,6h3v3h-3z M48,6h3v3h-3z M36,9h3v3h-3z M39,9h3v3h-3z M45,9h3v3h-3z M48,9h3v3h-3z M36,12h3v3h-3z M39,12h3v3h-3z M45,12h3v3h-3z M48,12h3v3h-3z M39,15h3v3h-3z M45,15h3v3h-3z M42,18h3v3h-3z"/></defs>
<g transform="translate(7 27)"><use href="#clv" transform="translate(1 2)" fill="#0b1126" stroke="#0b1126" stroke-width="2"/><use href="#clv" fill="#edfaff"/></g>
</svg>
